<?xml version="1.0" encoding="UTF-8" standalone="no"?>
<svg
   xmlns:dc="http://purl.org/dc/elements/1.1/"
   xmlns:cc="http://creativecommons.org/ns#"
   xmlns:rdf="http://www.w3.org/1999/02/22-rdf-syntax-ns#"
   xmlns:svg="http://www.w3.org/2000/svg"
   xmlns="http://www.w3.org/2000/svg"
   width="606.64453"
   height="640.29926"
   viewBox="0 0 160.50804 169.4125"
   version="1.1"
   id="svg8">
  <defs
     id="defs2">
    <marker
       style="overflow:visible"
       id="Arrow1Lend"
       refX="0"
       refY="0"
       orient="auto">
      <path
         transform="matrix(-0.8,0,0,-0.8,-10,0)"
         style="fill-rule:evenodd;stroke:#000000;stroke-width:1pt"
         d="M 0,0 5,-5 -12.5,0 5,5 Z"
         id="path868" />
    </marker>
  </defs>
  <metadata
     id="metadata5">
    <rdf:RDF>
      <cc:Work
         rdf:about="">
        <dc:format>image/svg+xml</dc:format>
        <dc:type
           rdf:resource="http://purl.org/dc/dcmitype/StillImage" />
        <dc:title></dc:title>
      </cc:Work>
    </rdf:RDF>
  </metadata>
  <g
     id="layer1"
     transform="translate(-53.916162,-45.75977)">
    <path
       style="fill:none;fill-rule:evenodd;stroke:#39b2e4;stroke-width:16;stroke-linecap:butt;stroke-linejoin:round;stroke-miterlimit:4;stroke-dasharray:none;stroke-dashoffset:0;stroke-opacity:1;paint-order:normal"
       id="path40"
       d="m 159.97504,159.58291 a 49.033783,48.504879 0 0 1 -44.58235,47.38882 49.033783,48.504879 0 0 1 -52.495588,-38.65207 49.033783,48.504879 0 0 1 33.095605,-55.84641 49.033783,48.504879 0 0 1 59.737353,26.43211" />
    <path
       style="fill:none;fill-rule:evenodd;stroke:#7156e2;stroke-width:16;stroke-linecap:butt;stroke-linejoin:round;stroke-miterlimit:4;stroke-dasharray:none;stroke-dashoffset:0;stroke-opacity:1;paint-order:normal"
       id="path40-6"
       d="m 108.35874,101.84086 a 49.033783,48.504879 0 0 1 44.14657,-47.83855 49.033783,48.504879 0 0 1 52.85862,38.230184 49.033783,48.504879 0 0 1 -32.69252,56.122736 49.033783,48.504879 0 0 1 -59.94283,-26.06882" />
  </g>
</svg>
